<?xml version="1.0" encoding="utf-8"?>
<!-- Generator: Adobe Illustrator 19.1.0, SVG Export Plug-In . SVG Version: 6.00 Build 0)  -->
<!DOCTYPE svg PUBLIC "-//W3C//DTD SVG 1.1//EN" "http://www.w3.org/Graphics/SVG/1.1/DTD/svg11.dtd">
<svg version="1.1" id="Layer_1" xmlns="http://www.w3.org/2000/svg" xmlns:xlink="http://www.w3.org/1999/xlink" x="0px" y="0px"
	 viewBox="0 0 54.3 104.3" style="enable-background:new 0 0 54.3 104.3;" xml:space="preserve">
<style type="text/css">
	.st0{fill:#FFFFFF;}
</style>
<g>
	<path class="st0" d="M3,96.9v-3.3l-3-5.1h1.2l2.3,4.1l2.4-4.1h1.2l-3,5.1v3.3H3z"/>
	<path class="st0" d="M9.3,96.9v-8.5h5.3v0.9h-4.1v2.8h3.6V93h-3.6v3h4.2v0.9H9.3z"/>
	<path class="st0" d="M17.2,96.9v-8.5h5.3v0.9h-4.1v2.8H22V93h-3.6v3h4.2v0.9H17.2z"/>
	<path class="st0" d="M25.1,96.9v-8.5h1.2v3.7h4.1v-3.7h1.2v8.5h-1.2V93h-4.1v3.9H25.1z"/>
	<path class="st0" d="M35.8,96.6c-0.5-0.3-0.9-0.6-1-1c-0.2-0.4-0.3-0.9-0.3-1.5v-2.7c0-1.2,0.3-2.1,1-2.5c0.6-0.4,1.4-0.6,2.5-0.6
		c1.9,0,3,0.7,3.3,2.1c0.1,0.3,0.1,0.6,0.1,1V94c0,1.2-0.3,2-1,2.5c-0.5,0.4-1.3,0.6-2.3,0.6C37.1,97,36.4,96.9,35.8,96.6z M38,96.1
		c0.8,0,1.3-0.1,1.7-0.4c0.4-0.2,0.5-0.7,0.5-1.5v-3.1c0-0.7-0.2-1.2-0.5-1.5c-0.4-0.3-0.9-0.4-1.7-0.4c-1.2,0-1.9,0.3-2.2,1
		c-0.1,0.2-0.1,0.6-0.1,0.9v3.1c0,0.7,0.2,1.2,0.6,1.5C36.7,96,37.2,96.1,38,96.1z"/>
	<path class="st0" d="M46.1,96.9l-2.4-8.5h1.1l1.8,6.4l1.8-6.4h1.3l1.9,6.4l1.7-6.4h1.1L52,96.9h-0.9l-2.1-7.2l-2.1,7.2H46.1z"/>
</g>
<g>
	<path class="st0" d="M3.1,104.2v-3.8h1.5c0.7,0,1.2,0.3,1.3,0.8c0.1,0.1,0.1,0.3,0.1,0.5v1.2c0,0.4-0.1,0.7-0.4,0.9
		c-0.2,0.2-0.6,0.3-1.1,0.3H3.1z M3.6,103.8h0.9c0.4,0,0.6-0.1,0.8-0.2c0.1-0.1,0.2-0.3,0.2-0.6v-1.3c0-0.4-0.1-0.6-0.4-0.7
		c-0.1-0.1-0.3-0.1-0.6-0.1H3.6V103.8z"/>
	<path class="st0" d="M12.8,104.1c-0.2-0.1-0.4-0.3-0.5-0.5c-0.1-0.2-0.1-0.4-0.1-0.7v-1.2c0-0.5,0.2-0.9,0.5-1.1
		c0.2-0.2,0.6-0.2,1.1-0.2c0.9,0,1.3,0.3,1.5,1c0,0.1,0,0.3,0,0.5v1.1c0,0.5-0.1,0.9-0.4,1.1c-0.2,0.2-0.6,0.3-1,0.3
		S13.1,104.2,12.8,104.1z M13.8,103.8c0.3,0,0.6-0.1,0.7-0.2c0.2-0.1,0.2-0.3,0.2-0.7v-1.4c0-0.3-0.1-0.5-0.2-0.7
		c-0.2-0.1-0.4-0.2-0.7-0.2c-0.5,0-0.8,0.1-1,0.4c0,0.1-0.1,0.2-0.1,0.4v1.4c0,0.3,0.1,0.5,0.3,0.7S13.4,103.8,13.8,103.8z"/>
	<path class="st0" d="M22.4,104.2v-3.3h-1.1v-0.4H24v0.4h-1.1v3.3H22.4z"/>
	<path class="st0" d="M30.6,104.1c-0.2-0.1-0.4-0.3-0.4-0.5c-0.1-0.2-0.1-0.4-0.1-0.7v-1.2c0-0.5,0.1-0.9,0.4-1.1
		c0.2-0.2,0.6-0.3,1.1-0.3s0.8,0.1,1,0.2c0.2,0.1,0.3,0.3,0.4,0.6c0,0.1,0,0.3,0,0.4l-0.5,0c0-0.3,0-0.4-0.1-0.5
		c0-0.1-0.1-0.2-0.1-0.2c0,0-0.1-0.1-0.2-0.1c-0.1,0-0.2,0-0.5,0c-0.2,0-0.4,0-0.5,0c-0.1,0-0.2,0.1-0.3,0.1
		c-0.2,0.1-0.2,0.3-0.2,0.7v1.4c0,0.3,0.1,0.5,0.2,0.7c0.2,0.1,0.4,0.2,0.8,0.2c0.4,0,0.6,0,0.7-0.1c0.1-0.1,0.2-0.2,0.2-0.4
		c0-0.1,0-0.2,0-0.3h0.5c0,0.4-0.1,0.6-0.2,0.8c-0.2,0.3-0.6,0.4-1.1,0.4C31.1,104.3,30.8,104.2,30.6,104.1z"/>
	<path class="st0" d="M39.7,104.1c-0.2-0.1-0.4-0.3-0.5-0.5c-0.1-0.2-0.1-0.4-0.1-0.7v-1.2c0-0.5,0.2-0.9,0.5-1.1
		c0.2-0.2,0.6-0.2,1.1-0.2c0.9,0,1.3,0.3,1.5,1c0,0.1,0,0.3,0,0.5v1.1c0,0.5-0.1,0.9-0.4,1.1c-0.2,0.2-0.6,0.3-1,0.3
		C40.3,104.3,39.9,104.2,39.7,104.1z M40.7,103.8c0.3,0,0.6-0.1,0.7-0.2c0.2-0.1,0.2-0.3,0.2-0.7v-1.4c0-0.3-0.1-0.5-0.2-0.7
		c-0.2-0.1-0.4-0.2-0.7-0.2c-0.5,0-0.8,0.1-1,0.4c0,0.1-0.1,0.2-0.1,0.4v1.4c0,0.3,0.1,0.5,0.3,0.7S40.3,103.8,40.7,103.8z"/>
	<path class="st0" d="M48.5,104.2v-3.8H49l1.3,2.1l1.3-2.1H52v3.8h-0.5v-2.9l-1.1,1.7h-0.4l-1.1-1.7v2.9H48.5z"/>
</g>
<polygon class="st0" points="40.2,5.2 40.2,31.1 34.3,33.2 34.3,7.4 20.2,12.6 20.2,38.4 14.3,40.6 14.3,14.8 0.2,20 0.2,60 
	20.2,52.6 20.2,78.4 34.3,73.2 34.3,47.4 40.2,45.2 40.2,71.1 54.3,65.8 54.3,0 "/>
</svg>
